# xmcd
#
# Track frame offsets: 
#        150
#        16727
#        31930
#        51872
#        69037
#        80970
#        97907
#        108555
#        132987
#        146307
#        172355
#        186192
#
# Disc length: 2662 seconds
#
# Revision: 3
# Processed by: cddbd v1.5.2PL0 Copyright (c) Steve Scherf et al.
# Submitted via: ExactAudioCopy v1.0b3
#
DISCID=9f0a640c
DTITLE=Yoakam, Dwight - Blame The Vain
DYEAR=2005
DGENRE=Country
TTITLE0=Blame The Vain
TTITLE1=Lucky That Way 
TTITLE2=Intentional Heartache
TTITLE3=Does It Show
TTITLE4=Three Good Reasons
TTITLE5=Just Passin' Time
TTITLE6=I'll Pretend
TTITLE7=She'll Remember
TTITLE8=I Wanna Love Again
TTITLE9=When I First Came Here
TTITLE10=Watch Out
TTITLE11=The Last Heart In Line
EXTD=
EXTT0=
EXTT1=
EXTT2=
EXTT3=
EXTT4=
EXTT5=
EXTT6=
EXTT7=
EXTT8=
EXTT9=
EXTT10=
EXTT11=
PLAYORDER=
